<?xml version="1.0" encoding="UTF-8"?>
<svg width="268px" height="222px" viewBox="0 0 268 222" version="1.1" xmlns="http://www.w3.org/2000/svg" xmlns:xlink="http://www.w3.org/1999/xlink">
    <title>编组 2</title>
    <defs>
        <linearGradient x1="0%" y1="100%" x2="102.553873%" y2="100%" id="linearGradient-1">
            <stop stop-color="#FFFFFF" offset="0%"></stop>
            <stop stop-color="#FFFFFF" stop-opacity="0" offset="100%"></stop>
        </linearGradient>
        <linearGradient x1="0%" y1="100%" x2="102.553873%" y2="100%" id="linearGradient-2">
            <stop stop-color="#FFFFFF" offset="0%"></stop>
            <stop stop-color="#FFFFFF" stop-opacity="0" offset="100%"></stop>
        </linearGradient>
        <linearGradient x1="0%" y1="100%" x2="102.553873%" y2="100%" id="linearGradient-3">
            <stop stop-color="#FFFFFF" offset="0%"></stop>
            <stop stop-color="#FFFFFF" stop-opacity="0" offset="100%"></stop>
        </linearGradient>
    </defs>
    <g id="页面-1" stroke="none" stroke-width="1" fill="none" fill-rule="evenodd" stroke-dasharray="20" stroke-linecap="round">
        <g id="画板02" transform="translate(-135, -1341)" stroke-width="6">
            <g id="编组-2" transform="translate(269, 1452) scale(1, -1) translate(-269, -1452)translate(138, 1344)">
                <path d="M262,145 L178,145 C138.787783,145 107,176.787783 107,216 L107,216 L107,216" id="路径" stroke="url(#linearGradient-1)"></path>
                <path d="M214,67 L173.404619,67 C107.130449,67 53.4046189,120.72583 53.4046189,187 C53.4046189,187.134646 53.4048455,187.269292 53.4052987,187.403937 L53.5015576,216 L53.5015576,216" id="路径" stroke="url(#linearGradient-2)"></path>
                <path d="M262,0 L200,0 C89.54305,-8.1310969e-15 -4.19487845e-14,89.54305 0,200 L0,216 L0,216" id="路径" stroke="url(#linearGradient-3)"></path>
            </g>
        </g>
    </g>
</svg>