<?xml version="1.0" encoding="UTF-8"?>
<svg width="268px" height="240px" viewBox="0 0 268 240" version="1.1" xmlns="http://www.w3.org/2000/svg" xmlns:xlink="http://www.w3.org/1999/xlink">
    <title>编组 3</title>
    <defs>
        <linearGradient x1="0%" y1="100%" x2="102.553873%" y2="100%" id="linearGradient-1">
            <stop stop-color="#FFFFFF" offset="0%"></stop>
            <stop stop-color="#FFFFFF" stop-opacity="0" offset="100%"></stop>
        </linearGradient>
        <linearGradient x1="0%" y1="100%" x2="102.553873%" y2="100%" id="linearGradient-2">
            <stop stop-color="#FFFFFF" offset="0%"></stop>
            <stop stop-color="#FFFFFF" stop-opacity="0" offset="100%"></stop>
        </linearGradient>
        <linearGradient x1="0%" y1="100%" x2="102.553873%" y2="100%" id="linearGradient-3">
            <stop stop-color="#FFFFFF" offset="0%"></stop>
            <stop stop-color="#FFFFFF" stop-opacity="0" offset="100%"></stop>
        </linearGradient>
    </defs>
    <g id="页面-1" stroke="none" stroke-width="1" fill="none" fill-rule="evenodd" stroke-dasharray="20" stroke-linecap="round">
        <g id="画板02" transform="translate(-132, -846)" stroke-width="6">
            <g id="编组-3" transform="translate(135, 849)">
                <path d="M262,150 L191,150 C144.608081,150 107,187.608081 107,234 L107,234 L107,234" id="路径" stroke="url(#linearGradient-1)"></path>
                <path d="M214,75 L173.877952,75 C107.603782,75 53.8779518,128.72583 53.8779518,195 C53.8779518,195.125786 53.8781496,195.251571 53.8785451,195.377357 L54,234 L54,234" id="路径" stroke="url(#linearGradient-2)"></path>
                <path d="M262,0 L200,0 C89.54305,2.02906125e-14 -1.3527075e-14,89.54305 0,200 L0,234 L0,234" id="路径" stroke="url(#linearGradient-3)"></path>
            </g>
        </g>
    </g>
</svg>